<?xml version="1.0" standalone="no"?>
<!DOCTYPE svg PUBLIC "-//W3C//DTD SVG 20010904//EN"
 "http://www.w3.org/TR/2001/REC-SVG-20010904/DTD/svg10.dtd">
<svg version="1.0" xmlns="http://www.w3.org/2000/svg"
 width="612.000000pt" height="408.000000pt" viewBox="0 0 612.000000 408.000000"
 preserveAspectRatio="xMidYMid meet">

<g transform="translate(0.000000,408.000000) scale(0.100000,-0.100000)"
fill="#000000" stroke="none">
<path d="M0 2040 l0 -2040 3060 0 3060 0 0 2040 0 2040 -3060 0 -3060 0 0
-2040z m3320 970 c-41 -5 -106 -11 -145 -14 l-70 -5 50 13 c28 8 93 14 145 14
l95 -1 -75 -7z m-223 -26 c-3 -3 -12 -4 -19 -1 -8 3 -5 6 6 6 11 1 17 -2 13
-5z m-47 -14 c-8 -5 -19 -10 -25 -10 -5 0 -3 5 5 10 8 5 20 10 25 10 6 0 3 -5
-5 -10z m540 -11 c0 -10 -34 -12 -79 -3 -50 10 -36 19 24 16 30 -2 55 -8 55
-13z m73 -24 c-3 -9 -8 -14 -10 -11 -3 3 -2 9 2 15 9 16 15 13 8 -4z m17 -25
c0 -5 -5 -10 -11 -10 -5 0 -7 5 -4 10 3 6 8 10 11 10 2 0 4 -4 4 -10z m265
-32 c24 -17 43 -34 41 -36 -4 -3 -58 33 -90 60 -25 21 8 5 49 -24z m-1018 -4
c-3 -3 -12 -4 -19 -1 -8 3 -5 6 6 6 11 1 17 -2 13 -5z m263 -30 c-17 -15 -33
-24 -36 -21 -6 6 45 47 58 47 5 0 -5 -12 -22 -26z m-300 9 c-1 -13 -37 -53
-48 -53 -5 0 -12 -10 -15 -22 -4 -12 -9 -19 -12 -16 -9 8 31 85 47 91 20 8 28
8 28 0z m-62 -125 c-2 -6 -10 -14 -16 -16 -7 -2 -10 2 -6 12 7 18 28 22 22 4z
m285 -23 c-3 -34 15 -64 35 -58 12 3 22 -2 26 -13 8 -22 1 -28 -21 -19 -10 5
-26 7 -35 6 -25 -3 -78 27 -78 44 0 21 -11 19 -50 -10 -42 -31 -49 -26 -20 16
43 59 148 84 143 34z m322 -5 c-3 -5 -17 -10 -31 -10 -13 0 -24 5 -24 10 0 6
14 10 31 10 17 0 28 -4 24 -10z m-645 -47 c-11 -17 -11 -17 -6 0 3 10 6 24 7
30 0 9 2 9 5 0 3 -7 0 -20 -6 -30z m660 -13 c0 -5 -2 -10 -4 -10 -3 0 -8 5
-11 10 -3 6 -1 10 4 10 6 0 11 -4 11 -10z m-640 -49 c0 -3 -14 -14 -30 -23
-36 -20 -40 -42 -7 -33 21 6 21 6 3 -9 -11 -9 -17 -19 -13 -22 3 -3 18 3 33
15 32 25 53 28 32 4 -8 -10 -18 -26 -21 -36 -4 -10 -14 -17 -23 -15 -19 4 -56
-42 -58 -71 -1 -26 -20 -31 -24 -7 -4 20 27 86 40 86 5 0 8 5 8 11 0 5 -4 7
-10 4 -13 -8 -13 4 1 46 15 44 37 69 55 62 8 -3 14 -8 14 -12z m1114 -30 c4
-5 -3 -7 -14 -4 -23 6 -26 13 -6 13 8 0 17 -4 20 -9z m-1024 -10 c0 -5 -12 -8
-26 -8 -18 0 -22 2 -13 8 18 11 39 11 39 0z m1065 -11 c3 -6 -1 -7 -9 -4 -18
7 -21 14 -7 14 6 0 13 -4 16 -10z m653 -1708 c30 -26 31 -28 10 -29 -13 -1
-38 -5 -56 -8 -22 -4 -37 -1 -48 10 -14 13 -14 15 0 15 20 0 31 19 17 33 -39
39 28 21 77 -21z m106 -217 c-10 -8 -23 -15 -28 -15 -6 0 -1 7 10 15 10 8 23
15 28 15 6 0 1 -7 -10 -15z m316 6 c0 -10 -37 -21 -87 -27 -45 -6 -42 10 5 23
48 14 82 15 82 4z m-1495 -31 c8 -27 -16 -65 -54 -85 -26 -13 -30 -13 -41 0
-10 12 -10 21 0 45 23 55 82 80 95 40z m1119 -16 l-17 -26 36 7 c22 4 37 3 37
-2 0 -6 11 -15 24 -21 14 -6 29 -20 35 -30 9 -17 4 -22 -32 -40 -163 -82 -305
-98 -295 -33 2 10 -7 17 -27 21 l-30 5 37 29 c32 24 217 113 241 115 4 1 0
-11 -9 -25z m-2456 -86 c-35 -62 -95 -101 -122 -79 -10 9 -29 3 -82 -25 l-69
-36 45 47 c49 50 168 115 213 115 25 0 26 -2 15 -22z m1482 -48 c0 -32 -69
-84 -88 -66 -6 7 67 86 80 86 4 0 8 -9 8 -20z m597 -35 c-23 -22 -33 -18 -12
5 10 11 20 18 23 16 2 -3 -3 -12 -11 -21z m558 -5 c-3 -5 -12 -10 -18 -10 -7
0 -6 4 3 10 19 12 23 12 15 0z m-1316 -65 c-19 -17 -48 -47 -64 -66 -36 -41
-115 -94 -115 -78 0 7 17 26 37 43 20 17 63 57 95 89 34 34 62 55 69 51 8 -4
0 -18 -22 -39z m1523 -35 c5 0 8 -10 6 -22 -3 -24 -51 -56 -84 -57 -22 -1 -37
28 -25 47 10 17 65 42 79 37 8 -3 18 -5 24 -5z m-1552 -57 c0 -10 -82 -93 -92
-93 -15 0 13 44 46 72 31 28 46 34 46 21z m564 -72 c10 -15 -126 -132 -139
-119 -5 4 49 87 71 111 18 18 59 23 68 8z m576 -75 c0 -7 -66 -46 -76 -46 -14
1 49 50 64 50 6 0 12 -2 12 -4z"/>
</g>
</svg>
